<?xml version="1.0" encoding="UTF-8" standalone="no"?>
<!DOCTYPE svg PUBLIC "-//W3C//DTD SVG 1.1//EN"
 "http://www.w3.org/Graphics/SVG/1.1/DTD/svg11.dtd">
<!-- Generated by graphviz version 2.43.0 (0)
 -->
<!-- Title: G Pages: 1 -->
<svg width="985pt" height="44pt"
 viewBox="0.00 0.00 985.00 44.00" xmlns="http://www.w3.org/2000/svg" xmlns:xlink="http://www.w3.org/1999/xlink">
<g id="graph0" class="graph" transform="scale(1 1) rotate(0) translate(4 40)">
<title>G</title>
<polygon fill="white" stroke="transparent" points="-4,4 -4,-40 981,-40 981,4 -4,4"/>
<!-- data.google_project.Terraform_project -->
<g id="node1" class="node">
<title>data.google_project.Terraform_project</title>
<polygon fill="none" stroke="black" points="681,-36 404,-36 404,0 681,0 681,-36"/>
<text text-anchor="middle" x="542.5" y="-14.3" font-family="sans-serif" font-size="14.00">data.google_project.Terraform_project</text>
</g>
<!-- data.google_service_account_access_token.default -->
<g id="node2" class="node">
<title>data.google_service_account_access_token.default</title>
<polygon fill="none" stroke="black" points="368,-36 0,-36 0,0 368,0 368,-36"/>
<text text-anchor="middle" x="184" y="-14.3" font-family="sans-serif" font-size="14.00">data.google_service_account_access_token.default</text>
</g>
<!-- data.google_project.Terraform_project&#45;&gt;data.google_service_account_access_token.default -->
<g id="edge1" class="edge">
<title>data.google_project.Terraform_project&#45;&gt;data.google_service_account_access_token.default</title>
<path fill="none" stroke="black" d="M403.92,-18C395.47,-18 386.89,-18 378.25,-18"/>
<polygon fill="black" stroke="black" points="378.11,-14.5 368.11,-18 378.11,-21.5 378.11,-14.5"/>
</g>
<!-- google_storage_bucket.auto&#45;expire -->
<g id="node3" class="node">
<title>google_storage_bucket.auto&#45;expire</title>
<polygon fill="none" stroke="black" points="977,-36 717,-36 717,0 977,0 977,-36"/>
<text text-anchor="middle" x="847" y="-14.3" font-family="sans-serif" font-size="14.00">google_storage_bucket.auto&#45;expire</text>
</g>
<!-- google_storage_bucket.auto&#45;expire&#45;&gt;data.google_project.Terraform_project -->
<g id="edge2" class="edge">
<title>google_storage_bucket.auto&#45;expire&#45;&gt;data.google_project.Terraform_project</title>
<path fill="none" stroke="black" d="M716.84,-18C708.5,-18 700.08,-18 691.66,-18"/>
<polygon fill="black" stroke="black" points="691.41,-14.5 681.41,-18 691.41,-21.5 691.41,-14.5"/>
</g>
</g>
</svg>
